<svg width="1136" height="568" xmlns="http://www.w3.org/2000/svg" xmlns:xlink="http://www.w3.org/1999/xlink" overflow="hidden"><defs><clipPath id="clip0"><rect x="-1" y="94" width="1136" height="568"></rect></clipPath></defs><g clip-path="url(#clip0)" transform="translate(1 -94)"><path d="M0 94 1134 94 1134 661 0 661Z" fill="#00AFCA" fill-rule="evenodd"></path><path d="M689.057 332.522C689.057 374.772 654.807 409.022 612.557 409.022 570.307 409.022 536.057 374.772 536.057 332.522 536.057 290.272 570.307 256.022 612.557 256.022 654.807 256.022 689.057 290.272 689.057 332.522Z" fill="#FEC50C" fill-rule="evenodd"></path><path d="M612.559 246.032C617.286 245.974 619.059 243.09 619.059 239.628 619.059 235.013 612.559 213.032 612.559 213.032 612.559 213.032 606.059 235.013 606.059 239.628 606.059 243.09 607.832 246.032 612.559 246.032Z" fill="#FEC50C" fill-rule="evenodd"></path><path d="M698.958 332.569C699.016 337.296 701.901 339.069 705.362 339.069 709.977 339.069 731.958 332.569 731.958 332.569 731.958 332.569 709.977 326.069 705.362 326.069 701.901 326.069 698.958 327.842 698.958 332.569Z" fill="#FEC50C" fill-rule="evenodd"></path><path d="M612.441 418.948C607.714 419.006 605.941 421.891 605.941 425.352 605.941 429.968 612.441 451.949 612.441 451.949 612.441 451.949 618.941 429.968 618.941 425.352 618.941 421.891 617.168 418.948 612.441 418.948Z" fill="#FEC50C" fill-rule="evenodd"></path><path d="M526.042 332.451C525.984 327.724 523.099 325.951 519.638 325.951 515.023 325.951 493.042 332.451 493.042 332.451 493.042 332.451 515.023 338.951 519.638 338.951 523.099 338.951 526.042 337.178 526.042 332.451Z" fill="#FEC50C" fill-rule="evenodd"></path><path d="M645.753 252.533C649.964 254.216 652.62 252.248 653.922 249.106 655.658 244.915 658.162 222.574 658.162 222.574 658.162 222.574 644.135 240.143 642.399 244.333 641.098 247.475 641.562 250.797 645.753 252.533Z" fill="#FEC50C" fill-rule="evenodd"></path><path d="M692.554 365.778C690.871 369.99 692.839 372.646 695.982 373.948 700.172 375.683 722.514 378.188 722.514 378.188 722.514 378.188 704.945 364.161 700.755 362.425 697.612 361.123 694.29 361.588 692.554 365.778Z" fill="#FEC50C" fill-rule="evenodd"></path><path d="M579.336 412.58C575.124 410.897 572.468 412.865 571.167 416.007 569.431 420.198 566.927 442.539 566.927 442.539 566.927 442.539 580.954 424.97 582.689 420.78 583.991 417.638 583.526 414.316 579.336 412.58Z" fill="#FEC50C" fill-rule="evenodd"></path><path d="M532.507 299.362C534.19 295.15 532.222 292.494 529.08 291.192 524.89 289.456 502.548 286.952 502.548 286.952 502.548 286.952 520.117 300.979 524.307 302.715 527.45 304.017 530.772 303.552 532.507 299.362Z" fill="#FEC50C" fill-rule="evenodd"></path><path d="M673.851 271.339C677.098 274.506 680.305 273.704 682.711 271.299 685.917 268.092 696.781 248.409 696.781 248.409 696.781 248.409 677.098 259.273 673.891 262.48 671.486 264.885 670.644 268.132 673.851 271.339Z" fill="#FEC50C" fill-rule="evenodd"></path><path d="M673.752 393.867C670.585 397.114 671.387 400.321 673.792 402.727 676.999 405.934 696.682 416.797 696.682 416.797 696.682 416.797 685.818 397.114 682.611 393.907 680.206 391.502 676.959 390.66 673.752 393.867Z" fill="#FEC50C" fill-rule="evenodd"></path><path d="M551.243 393.787C547.996 390.62 544.789 391.422 542.384 393.827 539.177 397.034 528.313 416.717 528.313 416.717 528.313 416.717 547.996 405.853 551.203 402.646 553.608 400.241 554.45 396.994 551.243 393.787Z" fill="#FEC50C" fill-rule="evenodd"></path><path d="M551.304 271.259C554.471 268.012 553.669 264.805 551.264 262.4 548.057 259.193 528.374 248.329 528.374 248.329 528.374 248.329 539.238 268.012 542.445 271.219 544.85 273.624 548.097 274.466 551.304 271.259Z" fill="#FEC50C" fill-rule="evenodd"></path><path d="M692.611 299.466C694.399 303.635 697.669 304.121 700.812 302.82 705.002 301.084 722.571 287.057 722.571 287.057 722.571 287.057 700.229 289.561 696.039 291.297 692.896 292.599 690.876 295.276 692.611 299.466Z" fill="#FEC50C" fill-rule="evenodd"></path><path d="M645.634 412.624C641.466 414.412 640.979 417.681 642.281 420.824 644.017 425.014 658.044 442.583 658.044 442.583 658.044 442.583 655.539 420.241 653.804 416.051 652.502 412.908 649.824 410.888 645.634 412.624Z" fill="#FEC50C" fill-rule="evenodd"></path><path d="M532.477 365.673C530.689 361.505 527.42 361.018 524.277 362.32 520.087 364.056 502.518 378.083 502.518 378.083 502.518 378.083 524.86 375.579 529.05 373.843 532.193 372.541 534.213 369.863 532.477 365.673Z" fill="#FEC50C" fill-rule="evenodd"></path><path d="M579.427 252.489C583.596 250.702 584.082 247.432 582.781 244.289 581.045 240.099 567.018 222.53 567.018 222.53 567.018 222.53 569.522 244.872 571.258 249.062 572.56 252.205 575.237 254.225 579.427 252.489Z" fill="#FEC50C" fill-rule="evenodd"></path><path d="M629.5 247.59C633.959 248.419 636.18 245.971 636.843 242.635 637.728 238.186 635.826 215.785 635.826 215.785 635.826 215.785 625.496 235.753 624.611 240.201 623.947 243.537 625.051 246.705 629.5 247.59Z" fill="#FEC50C" fill-rule="evenodd"></path><path d="M697.498 349.53C696.669 353.99 699.118 356.211 702.454 356.874 706.902 357.759 729.303 355.857 729.303 355.857 729.303 355.857 709.335 345.527 704.887 344.642 701.551 343.978 698.383 345.082 697.498 349.53Z" fill="#FEC50C" fill-rule="evenodd"></path><path d="M595.583 417.519C591.124 416.69 588.903 419.138 588.239 422.474 587.354 426.922 589.257 449.324 589.257 449.324 589.257 449.324 599.587 429.356 600.471 424.908 601.135 421.571 600.031 418.404 595.583 417.519Z" fill="#FEC50C" fill-rule="evenodd"></path><path d="M527.569 315.614C528.398 311.154 525.95 308.933 522.614 308.27 518.166 307.385 495.765 309.287 495.765 309.287 495.765 309.287 515.733 319.617 520.181 320.502 523.517 321.166 526.684 320.062 527.569 315.614Z" fill="#FEC50C" fill-rule="evenodd"></path><path d="M660.728 260.552C664.531 263.025 667.52 261.613 669.41 258.785 671.929 255.014 678.744 233.59 678.744 233.59 678.744 233.59 661.559 248.084 659.039 251.855 657.15 254.684 656.957 258.033 660.728 260.552Z" fill="#FEC50C" fill-rule="evenodd"></path><path d="M684.536 380.749C682.064 384.551 683.476 387.54 686.304 389.43 690.075 391.95 711.499 398.765 711.499 398.765 711.499 398.765 697.004 381.58 693.233 379.06 690.405 377.17 687.056 376.978 684.536 380.749Z" fill="#FEC50C" fill-rule="evenodd"></path><path d="M564.364 404.567C560.562 402.094 557.573 403.506 555.683 406.335 553.164 410.106 546.348 431.53 546.348 431.53 546.348 431.53 563.534 417.035 566.053 413.264 567.943 410.436 568.135 407.087 564.364 404.567Z" fill="#FEC50C" fill-rule="evenodd"></path><path d="M540.521 284.385C542.994 280.582 541.582 277.593 538.754 275.704 534.983 273.184 513.559 266.369 513.559 266.369 513.559 266.369 528.054 283.554 531.825 286.074 534.653 287.964 538.002 288.156 540.521 284.385Z" fill="#FEC50C" fill-rule="evenodd"></path><path d="M684.617 284.479C687.184 288.219 690.485 288.058 693.314 286.168 697.085 283.649 711.579 266.463 711.579 266.463 711.579 266.463 690.155 273.278 686.384 275.798 683.556 277.688 682.097 280.708 684.617 284.479Z" fill="#FEC50C" fill-rule="evenodd"></path><path d="M660.616 404.63C656.877 407.197 657.038 410.499 658.927 413.327 661.447 417.098 678.632 431.593 678.632 431.593 678.632 431.593 671.817 410.169 669.298 406.398 667.408 403.569 664.387 402.11 660.616 404.63Z" fill="#FEC50C" fill-rule="evenodd"></path><path d="M540.476 380.655C537.909 376.915 534.607 377.076 531.779 378.966 528.008 381.485 513.513 398.67 513.513 398.67 513.513 398.67 534.937 391.855 538.708 389.336 541.536 387.446 542.996 384.426 540.476 380.655Z" fill="#FEC50C" fill-rule="evenodd"></path><path d="M564.441 260.489C568.181 257.922 568.02 254.621 566.13 251.792 563.61 248.021 546.425 233.527 546.425 233.527 546.425 233.527 553.24 254.951 555.76 258.722 557.65 261.55 560.67 263.009 564.441 260.489Z" fill="#FEC50C" fill-rule="evenodd"></path><path d="M697.528 315.725C698.468 320.162 701.58 321.277 704.916 320.614 709.365 319.729 729.332 309.399 729.332 309.399 729.332 309.399 706.931 307.496 702.483 308.381 699.147 309.045 696.643 311.277 697.528 315.725Z" fill="#FEC50C" fill-rule="evenodd"></path><path d="M629.381 417.541C624.944 418.482 623.829 421.594 624.492 424.93 625.377 429.378 635.707 449.346 635.707 449.346 635.707 449.346 637.61 426.945 636.725 422.496 636.061 419.16 633.829 416.656 629.381 417.541Z" fill="#FEC50C" fill-rule="evenodd"></path><path d="M527.555 349.419C526.614 344.982 523.502 343.867 520.166 344.53 515.718 345.415 495.75 355.745 495.75 355.745 495.75 355.745 518.151 357.648 522.599 356.763 525.935 356.099 528.439 353.867 527.555 349.419Z" fill="#FEC50C" fill-rule="evenodd"></path><path d="M595.687 247.568C600.124 246.627 601.239 243.515 600.575 240.179 599.691 235.731 589.36 215.763 589.36 215.763 589.36 215.763 587.458 238.164 588.343 242.612 589.007 245.949 591.239 248.453 595.687 247.568Z" fill="#FEC50C" fill-rule="evenodd"></path><path d="M598.571 497.963C596.519 498.073 594.525 498.327 592.569 498.928 589.891 499.274 587.327 500.166 584.668 500.585L583.605 500.749 581.82 500.913C581.933 501.386 582.009 501.86 582.009 502.333 582.009 502.825 581.952 503.298 581.82 503.699 581.706 504.081 581.344 504.554 581.06 504.846 580.68 505.246 580.281 505.592 579.806 505.81 579.35 506.029 578.837 506.12 578.325 506.157 577.812 506.175 577.28 506.157 576.786 505.974 576.273 505.81 575.799 505.501 575.362 505.137 574.83 505.264 574.279 505.355 573.767 505.41 573.235 505.465 572.741 505.465 572.266 505.41 571.735 505.264 571.184 505.1 570.671 504.9 570.155 504.695 569.659 504.445 569.19 504.154 567.252 505.246 565.087 506.284 563.91 508.196 563.245 509.07 563.112 510.071 562.96 511.109 562.865 512.384 563.207 513.731 563.777 514.915 563.986 515.26 564.157 513.658 564.802 513.44 565.885 512.584 567.234 511.965 568.601 511.619 569.759 511.054 569.607 511.655 569.133 512.529 569.019 512.985 568.373 514.714 569.247 513.84 573.102 512.201 577.375 511.874 581.535 511.565 587.574 510.964 593.632 510.836 599.691 510.763 605.388 510.836 611.086 510.909 616.784 511.109 619.5 511.182 622.234 511.764 624.912 511.327 625.558 511.164 626.565 511.128 626.945 510.763 625.729 510.09 624.304 510.071 622.956 509.907L612.093 509.907C609.073 509.616 605.92 509.579 603.072 508.487 602.312 508.196 601.609 507.504 600.887 508.251 599.805 508.615 598.646 508.869 597.507 508.943 595.513 509.088 593.518 508.687 591.676 507.977 593.006 506.211 594.601 504.663 596.064 503.025 594.886 502.843 593.746 502.606 592.569 502.333 594.639 500.968 596.557 499.42 598.571 497.963Z" fill="#FEC50C" fill-rule="evenodd"></path><path d="M687.233 517.483C683.136 519.95 680.009 515.577 676.584 514.266 674.138 515.597 673.909 520.053 671.624 522.164 668.889 525.283 665.538 521.292 665.788 518.215 662.518 520.978 660.864 527.242 655.576 526.405 653.07 524.356 651.209 520.055 649.295 524.952 647.734 527.345 643.577 530.752 641.425 527.137 640.759 523.945 639.163 520.191 637.43 525.261 636.242 528.847 632.425 531.486 628.733 529.916 626.712 528.259 630.353 522.133 627.78 522.569 623.935 525.117 621.699 531.446 616.333 530.94 614.249 528.595 617.597 524.621 615.311 522.018 612.614 525.49 609.62 530.573 604.953 530.94 602.698 529.107 605.042 523.852 603.602 523.074 598.813 525.953 593.761 531.084 587.738 529.477 590.085 520.477 599.892 517.32 608.139 516.618 622.328 514.869 637.256 518.084 650.908 512.95 653.113 511.604 658.458 509.696 656.555 506.575 654.869 504.11 660.94 505.074 661.523 502.195 661.162 498.55 664.31 499.052 667.384 498.732 681.17 498.136 694.788 501.047 708.532 501.541 709.571 508.255 702.142 512.97 696.16 510.897 693.303 511.361 689.019 504.311 689.859 509.439 689.283 512.131 689.687 515.686 687.233 517.484M569.939 503.736C573.131 506.664 575.369 503.184 578.352 501.913 588.357 498.462 597.087 492.433 605.694 486.409 610.908 482.083 615.429 476.472 622.432 475.069 636.093 470.928 650.614 471.431 664.328 467.609 674.77 453.276 692.506 448.162 707.364 439.923 710.7 438.884 711.989 436.131 713.054 433.092 718.726 424.116 726.452 416.163 735.589 410.73 739.911 408.362 745.069 406.998 749.964 408.081 749.613 413.925 746.269 419.105 742.231 423.146 745.535 423.074 748.375 420.981 751.714 421.099 752.858 427.097 746.398 430.235 742.96 433.97 744.875 434.416 752.209 434.972 748.212 436.895 743.119 440.438 737.303 442.871 732.602 446.987 736.94 447.768 737.434 448.692 733.023 450.265 730.635 451.888 726.044 452.455 725.6 455.616 728.877 457.635 724.09 459.64 722.245 460.296 718.714 461.12 715.007 462.658 719.696 465.346 717.922 468.033 714.116 468.606 711.011 468.34 711.953 471.385 713.317 474.792 709.376 476.135 700.539 482.831 690.17 487.703 679.062 488.817 692.938 489.886 707.23 487.304 719.087 479.739 720.652 477.883 728.861 475.889 724.27 474.328 722.108 473.427 717.474 472.425 717.161 470.773 723.583 466.801 731.675 468.214 738.584 465.854 738.762 463.611 733.329 464.235 731.303 463.725 726.471 463.328 726.755 462.092 731.413 461.634 737.307 460.069 743.983 459.761 748.941 455.908 744.904 454.033 739.827 455.684 735.519 454.153 742.821 450.949 751.435 450.628 757.986 445.816 760.971 442.488 754.163 443.527 752.18 443.608 748.136 444.314 746.267 442.373 750.861 440.689 758.705 434.89 768.638 431.124 774.148 422.717 775.453 420.835 777.22 415.165 773.057 417.205 767.583 419.03 762.766 425.2 756.528 423.291 768.819 413.741 780.514 402.869 788.915 389.652 789.349 385.84 783.381 385.428 781.827 388.421 773.931 396.049 766.784 405.053 756.674 409.836 766.356 400.466 774.362 389.372 781.346 377.873 782.844 374.453 786.868 370.34 784.684 366.543 781.163 363.622 776.759 366.296 774.929 369.792 768.791 377.826 764.13 387.204 756.236 393.747 763.147 380.525 770.302 366.449 770.476 351.197 770.455 348.057 769.826 343.433 765.573 344.019 762.201 344.625 763.002 349.684 761.612 352.243 758.552 362.663 757.115 373.947 750.838 383.07 752.251 374.604 754.721 365.777 752.825 357.227 751.938 353.406 745.784 355.05 746.576 358.832 739.223 396.174 714.231 428.832 681.545 447.724 666.578 456.214 649.861 461.687 632.853 464.168 628.278 465.172 623.33 464.583 618.957 466.147 608.361 474.293 601.945 487.923 588.529 492.192 582.516 495.188 574.676 495.795 570.377 501.395 570.005 502.112 569.924 502.942 569.939 503.736" fill="#FEC50C" fill-rule="evenodd"></path><path d="M609.95 465.608C607.97 469.208 606.804 473.347 604.258 476.57 596.597 469.589 585.491 469.82 575.773 469.355 567.752 468.926 559.029 468.185 552.823 462.457 546.295 457.102 540.965 450.148 533.67 445.804 527.012 443.991 520.299 441.722 514.946 437.151 503.505 427.813 496.954 413.958 485.775 404.329 483.644 402.228 481.131 400.6 478.743 398.818 476.474 399.371 477.501 404.274 474.725 401.775 473.214 400.699 469.436 400.594 469.095 402.097 472.513 406.607 475.934 411.757 476.408 417.525 474.077 417.764 469.932 417.032 468.777 417.901 471.873 422.547 475.84 426.668 480.349 429.948 478.186 430.296 473.925 430.107 473.096 430.979 477.571 434.631 482.37 438.364 488.229 439.302 489.429 440.885 486.475 443.942 488.959 445.294 490.399 445.883 495.151 446.869 491.878 448.51 489.632 450.025 490.465 453.558 493.338 453.478 495.154 454.407 499.232 454.635 499.551 456.243 497.941 457.883 492.932 459.828 497.195 461.365 501.178 463.577 505.72 465.013 510.268 465.171 507.985 467.093 505.173 468.185 502.824 469.994 513.32 476.156 524.954 480.209 536.45 484.112 541.028 485.643 545.658 487.071 550.403 487.97 536.616 487.173 523.29 483.086 510.733 477.492 504.225 474.633 497.672 471.871 491.002 469.41 493.927 467.885 497.31 467.513 500.343 466.194 494.047 464.931 487.169 464.517 481.634 461.052 482.483 459.535 485.698 459.464 487.476 458.692 490.821 457.89 492.895 456.917 488.18 456.626 483.424 455.333 477.97 455.913 473.779 453.04 474.049 451.318 478.435 451.918 480.221 451.175 482.471 450.788 484.972 450.464 486.769 448.948 479.417 445.896 469.801 448.058 464.043 441.557 462.715 439.08 468.167 441.076 469.719 440.663 473.664 440.663 477.904 441.918 481.661 440.325 470.949 435.616 459.474 431.207 451.304 422.495 450.397 421.094 447.679 417.268 449.872 416.795 456.231 417.638 460.834 424.587 467.635 423.506 468.539 422.286 463.684 420.287 462.472 418.544 452.555 410.022 442.93 400.774 435.979 389.611 435.501 385.883 441.353 385.325 442.893 388.204 450.478 395.519 457.329 404.055 466.775 409.049 470.127 410.676 464.85 407.122 464.147 405.833 455.419 395.684 447.11 384.964 441.01 373.011 439.918 370.857 438.108 366.957 441.375 365.81 444.641 364.171 447.882 366.404 449.538 369.213 455.955 377.318 460.677 386.951 468.671 393.703 461.861 380.469 454.59 366.537 454.414 351.308 454.574 348.356 454.763 343.891 458.761 344.012 462.118 343.502 461.588 347.806 462.688 349.858 465.995 361.046 467.437 373.156 474.072 383.034 472.607 374.734 470.45 366.187 471.883 357.749 472.213 354.979 475.328 354.14 477.361 355.815 479.004 359.843 479.347 364.818 480.844 369.124 489.365 398.314 508.497 423.986 533.429 441.214 553.962 455.317 578.33 463.735 603.201 465.203 605.447 465.399 607.702 465.467 609.952 465.606" fill="#FEC50C" fill-rule="evenodd"></path><path d="M579.94 502.972C579.94 503.524 579.269 503.972 578.44 503.972 577.612 503.972 576.94 503.524 576.94 502.972 576.94 502.42 577.612 501.972 578.44 501.972 579.269 501.972 579.94 502.42 579.94 502.972Z" fill="#FEC50C" fill-rule="evenodd"></path><path d="M579.451 502.966C579.451 503.242 579.227 503.466 578.951 503.466 578.675 503.466 578.451 503.242 578.451 502.966 578.451 502.689 578.675 502.466 578.951 502.466 579.227 502.466 579.451 502.689 579.451 502.966Z" stroke="#00AFCA" stroke-width="0.215853" stroke-miterlimit="8" fill="#FEC50C" fill-rule="evenodd"></path><path d="M67.9355 135.987C67.9355 135.987 62.5325 131.485 60.6974 133.743 57.7457 137.376 69.7717 155.469 69.7717 161.841 69.7717 172.299 62.7343 175.143 54.0446 176.637 48.2137 177.639 38.7188 176.218 38.7188 176.218 40.5067 173.835 41.6694 173.133 44.6818 172.943 41.3281 171.217 37.9131 167.468 37.9131 161.634 37.9131 152.637 41.648 148.928 41.648 138.785 41.648 133.158 36.995 125.995 36.995 125.995 45.2198 126.811 49.2959 134.363 46.9768 140.398 48.2857 140.585 49.4742 140.292 50.4952 139.333 51.0968 141.006 50.1466 142.948 48.8743 144.621 49.8992 145.164 50.6521 144.838 52.2848 144.504 52.1296 146.228 51.0883 148.059 48.5404 149.782 55.9342 147.878 60.4837 152.989 60.4837 158.339 60.4837 162.38 57.6282 165.276 54.8367 165.276 53.9349 165.276 52.6097 164.908 51.8626 164.354 51.3352 165.466 51.6067 166.955 52.1493 168.067 50.1039 167.531 48.8051 166.326 49.7295 163.818 48.158 163.675 46.9082 163.149 46.0581 162.146 46.9194 161.051 48.2266 160.421 49.7295 160.472 48.5853 158.131 49.8605 156.821 51.7186 155.758 51.7186 155.758 50.5368 160.472 53.5543 160.472 54.9109 160.472 56.1472 160.034 56.1472 158.051 56.1472 156.324 54.6253 153.933 51.1063 154.085 47.588 154.237 44.7353 156.491 44.7353 162.061 44.7353 167.199 48.9148 169.755 54.4223 169.92 59.3885 170.072 63.1369 167.404 63.1369 162.324 63.1369 155.562 53.2935 140.149 53.2935 134.124 53.2935 129.602 57.3931 127.079 61.4047 127.079 66.6063 127.079 70.9951 132.186 70.9951 132.186L67.9393 135.986Z" fill="#FEC50C" fill-rule="evenodd"></path><path d="M69.4225 259.591C69.4225 271.082 59.0277 276.988 50.8594 276.988 39.8546 276.988 33.9951 270.458 33.9951 261.909 33.9951 257.063 34.8896 254.023 37.1408 249.385 37.1408 249.385 55.2938 211.918 62.3612 197.427 63.2426 195.62 63.5271 193.562 63.5271 190.546 63.5271 185.888 58.9745 182.08 54.201 181.964 49.8495 181.856 45.1085 185.99 45.1085 190.701 45.1085 196.422 48.0994 198.973 51.1702 198.973 54.9492 198.973 56.455 197.431 56.455 194.798 56.455 192.963 55.5622 192.169 54.2787 192.169 51.0377 192.169 51.9476 196.5 51.9476 196.5 50.3379 196.15 49.015 194.517 49.7713 192.478 48.549 192.21 47.4457 191.56 46.6239 190.623 47.4927 189.787 48.4895 189.142 49.7713 188.922 49.0122 186.435 50.0266 185.22 52.2194 184.709 51.7769 185.665 51.7619 186.545 51.9088 187.376 55.3605 186.401 60.6517 187.952 60.6517 193.87 60.6517 199.746 56.5424 204.694 48.8386 203.458 50.6709 204.327 51.6032 206.107 51.7917 208.097 50.3922 207.556 48.8386 207.479 48.8386 207.479 49.7393 209.055 50.9903 210.414 50.9365 213.509 49.5086 212.864 48.1817 211.671 46.3514 212.426 49.2247 218.037 45.6946 225.755 36.7147 227.581 40.0014 223.757 41.6104 219.629 41.6104 215.519 41.6104 202.199 37.8805 199.96 37.8805 190.7 37.8805 186.825 39.8871 182.642 43.8644 179.798L43.8644 179.953C41.2358 179.254 39.5518 177.969 38.5836 176.224 44.5899 174.533 53.3207 174.564 58.0081 176.395 63.3968 177.014 67.1588 181.117 68.267 183.2 69.375 185.28 71.528 192.811 68.267 199.59 64.6969 207.01 47.868 242.425 42.621 253.558 41.5082 255.919 40.833 258.424 40.833 261.135 40.833 267.955 47.1278 270.336 50.7035 270.336 54.9779 270.336 59.3298 267.105 59.3298 263.069 59.3298 260.511 57.9304 258.971 55.91 258.971 51.0788 258.971 51.3723 263.05 52.3355 265.62 49.3287 264.278 47.5807 261.883 48.0611 259.358 46.359 259.126 44.7384 258.325 43.243 256.651 44.4197 255.177 45.8546 254.062 48.0611 254.023 47.0975 250.104 49.7405 248.447 52.3355 247.528 51.5146 250.404 50.976 253.714 55.91 253.714 59.5086 253.714 62.3407 254.332 63.9926 256.652 64.0897 253.559 64.381 241.343 64.381 241.343 64.589 236.752 58.1903 236.883 54.1233 238.25 55.6582 232.962 58.806 230.103 66.0913 230.827 64.3228 230.093 62.4383 228.442 62.4383 225.26 62.4395 220.956 65.9581 216.187 68.2682 214.777L69.4231 259.591Z" fill="#FEC50C" fill-rule="evenodd"></path><path d="M35.4225 84.6001C35.4225 96.0912 25.0277 101.997 16.8594 101.997 5.85457 101.997-0.00486594 95.467-0.00486594 86.9187-0.00486594 82.0728 0.88962 79.0325 3.14075 74.3947 3.14075 74.3947 21.2938 36.9275 28.3612 22.4364 29.2426 20.6291 29.5271 18.5712 29.5271 15.5553 29.5271 10.8971 24.9745 7.08969 20.201 6.97295 15.8495 6.86524 11.1085 10.9991 11.1085 15.7101 11.1085 21.4318 14.0994 23.9829 17.1702 23.9829 20.9492 23.9829 22.455 22.4409 22.455 19.8076 22.455 17.9726 21.5622 17.1789 20.2787 17.1789 17.0377 17.1789 17.9476 21.5089 17.9476 21.5089 16.3379 21.1592 15.015 19.5264 15.7713 17.4879 14.549 17.2199 13.4457 16.5695 12.6239 15.6324 13.4927 14.7962 14.4895 14.151 15.7713 13.9317 15.0122 11.4441 16.0266 10.2292 18.2194 9.71787 17.7769 10.6743 17.7619 11.5547 17.9088 12.3852 21.3605 11.4106 26.6517 12.9611 26.6517 18.8796 26.6517 24.7556 22.5424 29.7035 14.8386 28.4671 16.6709 29.3367 17.6032 31.1162 17.7917 33.1061 16.3922 32.5652 14.8386 32.4881 14.8386 32.4881 15.7393 34.0641 16.9903 35.423 16.9365 38.5182 15.5086 37.8737 14.1817 36.6804 12.3514 37.4355 15.2247 43.0467 11.6946 50.7645 2.71466 52.5905 6.00139 48.7668 7.61043 44.6386 7.61043 40.5284 7.61043 27.2086 3.88048 24.9699 3.88048 15.7095 3.88048 11.8347 5.88715 7.65094 9.86442 4.80744L9.86442 4.96219C7.23575 4.2632 5.55182 2.97861 4.58361 1.23304 10.5899-0.457417 19.3207-0.426236 24.0081 1.40427 29.3968 2.02389 33.1588 6.12657 34.267 8.20935 35.375 10.2899 37.528 17.82 34.267 24.5997 30.6969 32.0193 13.868 67.4349 8.62096 78.5677 7.50825 80.9288 6.83305 83.4334 6.83305 86.1449 6.83305 92.9647 13.1278 95.3458 16.7035 95.3458 20.9779 95.3458 25.3298 92.1144 25.3298 88.078 25.3298 85.5207 23.9304 83.9805 21.91 83.9805 17.0788 83.9805 17.3723 88.0593 18.3355 90.6297 15.3287 89.2878 13.5807 86.8927 14.0611 84.367 12.359 84.1352 10.7384 83.3342 9.24295 81.6607 10.4197 80.1868 11.8546 79.0716 14.0611 79.032 13.0975 75.1135 15.7405 73.4565 18.3355 72.5375 17.5146 75.4135 16.976 78.723 21.91 78.723 25.5086 78.723 28.3407 79.3414 29.9926 81.6613 30.0897 78.5682 30.381 66.3521 30.381 66.3521 30.589 61.7613 24.1903 61.8922 20.1233 63.259 21.6582 57.9715 24.806 55.1127 32.0913 55.8365 30.3228 55.1025 28.4383 53.4511 28.4383 50.2696 28.4395 45.9651 31.9581 41.1964 34.2682 39.7864L35.4231 84.6006Z" fill="#FEC50C" fill-rule="evenodd" transform="matrix(1 0 0 -1 34 379)"></path><path d="M30.938 9.98745C30.938 9.98745 25.5351 5.48478 23.6999 7.74334 20.7483 11.3756 32.7742 29.4692 32.7742 35.8407 32.7742 46.2994 25.7369 49.1434 17.0472 50.637 11.2162 51.6394 1.72139 50.2177 1.72139 50.2177 3.5093 47.8354 4.67199 47.1334 7.68434 46.9434 4.33069 45.2166 0.915719 41.4684 0.915719 35.6344 0.915719 26.6369 4.65065 22.9282 4.65065 12.7851 4.65065 7.15792-0.00239472-0.00516243-0.00239472-0.00516243 8.22242 0.811018 12.2985 8.36273 9.97941 14.398 11.2883 14.5848 12.4768 14.2921 13.4978 13.3331 14.0994 15.0058 13.1492 16.9477 11.8769 18.6208 12.9018 19.1638 13.6547 18.8382 15.2874 18.5037 15.1322 20.2276 14.0909 22.0586 11.543 23.7824 18.9368 21.8784 23.4862 26.9888 23.4862 32.3388 23.4862 36.3798 20.6307 39.2762 17.8393 39.2762 16.9375 39.2762 15.6123 38.9076 14.8652 38.354 14.3378 39.4663 14.6093 40.9549 15.1519 42.0672 13.1065 41.5309 11.8077 40.326 12.732 37.8182 11.1606 37.6749 9.9108 37.1487 9.06068 36.1456 9.92205 35.0512 11.2292 34.4213 12.732 34.4725 11.5879 32.1309 12.8631 30.8207 14.7212 29.758 14.7212 29.758 13.5394 34.4725 16.5569 34.4725 17.9135 34.4725 19.1498 34.0343 19.1498 32.0512 19.1498 30.3244 17.6279 27.9327 14.1089 28.0849 10.5905 28.2371 7.73775 30.4906 7.73775 36.0609 7.73775 41.1991 11.9174 43.7548 17.4249 43.9198 22.391 44.0721 26.1394 41.4043 26.1394 36.3235 26.1394 29.5618 16.296 14.1488 16.296 8.12361 16.296 3.60204 20.3957 1.07864 24.4072 1.07864 29.6089 1.07864 33.9977 6.18615 33.9977 6.18615L30.9419 9.9858Z" fill="#FEC50C" fill-rule="evenodd" transform="matrix(-1 1.22465e-16 1.22465e-16 1 99 126)"></path><path d="M35.4255 84.5907C35.4255 96.0818 25.0307 101.988 16.8625 101.988 5.85764 101.988-0.00179828 95.4576-0.00179828 86.9093-0.00179828 82.0634 0.892688 79.0231 3.14382 74.3852 3.14382 74.3852 21.2967 36.9181 28.3643 22.427 29.2457 20.6196 29.5301 18.5618 29.5301 15.5459 29.5301 10.8876 24.9776 7.08035 20.204 6.9635 15.8526 6.85579 11.1116 10.9896 11.1116 15.7006 11.1116 21.4224 14.1024 23.9735 17.1732 23.9735 20.9523 23.9735 22.458 22.4315 22.458 19.7983 22.458 17.9631 21.5652 17.1694 20.2818 17.1694 17.0407 17.1694 17.9507 21.4995 17.9507 21.4995 16.341 21.1497 15.0181 19.517 15.7743 17.4784 14.552 17.2105 13.4487 16.5601 12.627 15.623 13.4958 14.7868 14.4926 14.1417 15.7743 13.9223 15.0152 11.4347 16.0297 10.2198 18.2225 9.70853 17.7798 10.6648 17.765 11.5452 17.9117 12.3758 21.3636 11.4013 26.6546 12.9517 26.6546 18.8702 26.6546 24.7462 22.5454 29.6941 14.8415 28.4577 16.674 29.3273 17.6061 31.1068 17.7946 33.0966 16.3952 32.5558 14.8415 32.4787 14.8415 32.4787 15.7424 34.0547 16.9932 35.4136 16.9396 38.5089 15.5115 37.8643 14.1846 36.6709 12.3545 37.4261 15.2276 43.0373 11.6976 50.7551 2.71773 52.5811 6.00435 48.7573 7.6135 44.6291 7.6135 40.5191 7.6135 27.1991 3.88355 24.9604 3.88355 15.7001 3.88355 11.8253 5.89022 7.6416 9.86749 4.79799L9.86749 4.95274C7.23882 4.25375 5.55489 2.96917 4.58667 1.2237 10.5929-0.466865 19.3238-0.435685 24.0111 1.39482 29.3999 2.01444 33.1618 6.11712 34.2699 8.20001 35.3781 10.2805 37.531 17.8107 34.2699 24.5903 30.6999 32.0099 13.8711 67.4254 8.62392 78.5583 7.51121 80.9194 6.83611 83.424 6.83611 86.1355 6.83611 92.9553 13.1307 95.3363 16.7066 95.3363 20.9809 95.3363 25.3329 92.1049 25.3329 88.0686 25.3329 85.5114 23.9334 83.971 21.9131 83.971 17.0818 83.971 17.3754 88.0499 18.3384 90.6202 15.3316 89.2784 13.5838 86.8832 14.0641 84.3577 12.3619 84.1258 10.7414 83.3248 9.24602 81.6513 10.4227 80.1773 11.8575 79.0622 14.0641 79.0225 13.1005 75.1041 15.7434 73.4471 18.3384 72.5281 17.5176 75.404 16.9789 78.7136 21.9131 78.7136 25.5117 78.7136 28.3437 79.3321 29.9956 81.6518 30.0928 78.5588 30.3841 66.3426 30.3841 66.3426 30.5919 61.7519 24.1933 61.8828 20.1264 63.2496 21.6611 57.9621 24.8091 55.1032 32.0942 55.8272 30.3258 55.093 28.4414 53.4416 28.4414 50.2602 28.4426 45.9557 31.9612 41.1869 34.2711 39.777L35.4261 84.5912Z" fill="#FEC50C" fill-rule="evenodd" transform="matrix(-1 1.22465e-16 1.22465e-16 1 102 175)"></path><path d="M66.5745 294.4C66.5745 282.909 76.9693 277.003 85.1375 277.003 96.1424 277.003 102.002 283.533 102.002 292.081 102.002 296.927 101.107 299.968 98.8562 304.605 98.8562 304.605 80.7033 342.073 73.6357 356.564 72.7543 358.371 72.4699 360.429 72.4699 363.445 72.4699 368.103 77.0224 371.91 81.796 372.027 86.1474 372.135 90.8884 368.001 90.8884 363.29 90.8884 357.568 87.8976 355.017 84.8268 355.017 81.0477 355.017 79.542 356.559 79.542 359.192 79.542 361.027 80.4348 361.821 81.7182 361.821 84.9593 361.821 84.0493 357.491 84.0493 357.491 85.659 357.841 86.9819 359.474 86.2257 361.512 87.448 361.78 88.5513 362.431 89.373 363.368 88.5042 364.204 87.5074 364.849 86.2257 365.068 86.9848 367.556 85.9703 368.771 83.7775 369.282 84.2202 368.326 84.235 367.445 84.0883 366.615 80.6364 367.589 75.3454 366.039 75.3454 360.12 75.3454 354.244 79.4546 349.296 87.1585 350.533 85.326 349.663 84.3939 347.884 84.2054 345.894 85.6048 346.435 87.1585 346.512 87.1585 346.512 86.2576 344.936 85.0068 343.577 85.0604 340.482 86.4884 341.126 87.8154 342.32 89.6455 341.564 86.7724 335.953 90.3024 328.235 99.2823 326.409 95.9956 330.233 94.3865 334.361 94.3865 338.472 94.3865 351.791 98.1165 354.03 98.1165 363.29 98.1165 367.165 96.1098 371.349 92.1325 374.193L92.1325 374.038C94.7612 374.737 96.4451 376.021 97.4133 377.767 91.4071 379.457 82.6762 379.426 77.9889 377.596 72.6001 376.976 68.8382 372.873 67.7301 370.791 66.6219 368.71 64.469 361.18 67.7301 354.4 71.3001 346.981 88.1289 311.565 93.3761 300.432 94.4888 298.071 95.1639 295.567 95.1639 292.855 95.1639 286.035 88.8693 283.654 85.2934 283.654 81.0191 283.654 76.6671 286.886 76.6671 290.922 76.6671 293.479 78.0666 295.02 80.0869 295.02 84.9182 295.02 84.6246 290.941 83.6616 288.37 86.6684 289.712 88.4162 292.107 87.9359 294.633 89.6381 294.865 91.2586 295.666 92.754 297.339 91.5773 298.813 90.1425 299.928 87.9359 299.968 88.8995 303.886 86.2566 305.544 83.6616 306.462 84.4824 303.587 85.0211 300.277 80.0869 300.277 76.4883 300.277 73.6563 299.659 72.0044 297.339 71.9072 300.432 71.6159 312.648 71.6159 312.648 71.4081 317.239 77.8067 317.108 81.8736 315.741 80.3389 321.029 77.1909 323.887 69.9058 323.163 71.6742 323.898 73.5586 325.549 73.5586 328.73 73.5574 333.035 70.0388 337.804 67.7289 339.214L66.5739 294.399Z" fill="#FEC50C" fill-rule="evenodd"></path><path d="M30.9355 10.2253C30.9355 10.2253 25.5325 5.63443 23.6974 7.93718 20.7457 11.6408 32.7717 30.0891 32.7717 36.5855 32.7717 47.2492 25.7343 50.149 17.0446 51.6719 11.2137 52.694 1.71878 51.2445 1.71878 51.2445 3.5067 48.8154 4.66939 48.0997 7.68184 47.9058 4.32809 46.1453 0.913116 42.3235 0.913116 36.3751 0.913116 27.2013 4.64804 23.4199 4.64804 13.0779 4.64804 7.34038-0.00499767 0.0367403-0.00499767 0.0367403 8.21982 0.868925 12.2959 8.56882 9.97681 14.7223 11.2857 14.9128 12.4742 14.6143 13.4952 13.6367 14.0968 15.342 13.1466 17.322 11.8743 19.0279 12.8992 19.5817 13.6521 19.2496 15.2848 18.9085 15.1296 20.6663 14.0883 22.5331 11.5404 24.2907 18.9342 22.3495 23.4838 27.56 23.4838 33.0149 23.4838 37.1352 20.6282 40.0883 17.8367 40.0883 16.9349 40.0883 15.6097 39.7126 14.8626 39.1481 14.3352 40.2821 14.6067 41.8 15.1493 42.9341 13.1039 42.3872 11.8051 41.1588 12.7295 38.6018 11.158 38.4558 9.9082 37.9191 9.05807 36.8965 9.91944 35.7806 11.2266 35.1382 12.7295 35.1905 11.5853 32.8029 12.8605 31.467 14.7186 30.3835 14.7186 30.3835 13.5368 35.1905 16.5543 35.1905 17.9109 35.1905 19.1472 34.7436 19.1472 32.7216 19.1472 30.961 17.6253 28.5224 14.1063 28.6776 10.588 28.8327 7.73525 31.1305 7.73525 36.81 7.73525 42.0489 11.9148 44.6548 17.4223 44.8231 22.3885 44.9783 26.1369 42.2581 26.1369 37.0777 26.1369 30.1834 16.2935 14.4683 16.2935 8.3249 16.2935 3.71467 20.3931 1.14179 24.4047 1.14179 29.6063 1.14179 33.9951 6.34955 33.9951 6.34955L30.9393 10.2236Z" fill="#FEC50C" fill-rule="evenodd" transform="matrix(1 0 0 -1 37 630)"></path><path d="M35.4225 84.6187C35.4225 96.1099 25.0277 102.016 16.8594 102.016 5.85457 102.016-0.00486594 95.4856-0.00486594 86.9374-0.00486594 82.0915 0.88962 79.0512 3.14075 74.4134 3.14075 74.4134 21.2938 36.9462 28.3612 22.455 29.2426 20.6477 29.5271 18.5899 29.5271 15.5739 29.5271 10.9157 24.9745 7.10838 20.201 6.99153 15.8495 6.88392 11.1085 11.0177 11.1085 15.7286 11.1085 21.4505 14.0994 24.0015 17.1702 24.0015 20.9492 24.0015 22.455 22.4595 22.455 19.8263 22.455 17.9912 21.5622 17.1976 20.2787 17.1976 17.0377 17.1976 17.9476 21.5276 17.9476 21.5276 16.3379 21.1777 15.015 19.5451 15.7713 17.5065 14.549 17.2385 13.4457 16.5881 12.6239 15.6511 13.4927 14.8149 14.4895 14.1697 15.7713 13.9503 15.0122 11.4627 16.0266 10.2478 18.2194 9.73656 17.7769 10.6929 17.7619 11.5733 17.9088 12.4038 21.3605 11.4293 26.6517 12.9797 26.6517 18.8982 26.6517 24.7742 22.5424 29.7221 14.8386 28.4857 16.6709 29.3553 17.6032 31.1349 17.7917 33.1246 16.3922 32.5839 14.8386 32.5067 14.8386 32.5067 15.7393 34.0827 16.9903 35.4416 16.9365 38.5369 15.5086 37.8923 14.1817 36.699 12.3514 37.4541 15.2247 43.0653 11.6946 50.7831 2.71466 52.6091 6.00139 48.7854 7.61043 44.6572 7.61043 40.5471 7.61043 27.2271 3.88048 24.9885 3.88048 15.7281 3.88048 11.8534 5.88715 7.66963 9.86442 4.82602L9.86442 4.98077C7.23575 4.28178 5.55182 2.9972 4.58361 1.25173 10.5899-0.438834 19.3207-0.407654 24.0081 1.42285 29.3968 2.04257 33.1588 6.14515 34.267 8.22804 35.375 10.3085 37.528 17.8387 34.267 24.6183 30.6969 32.0379 13.868 67.4535 8.62096 78.5863 7.50825 80.9475 6.83305 83.452 6.83305 86.1635 6.83305 92.9833 13.1278 95.3644 16.7035 95.3644 20.9779 95.3644 25.3298 92.133 25.3298 88.0966 25.3298 85.5394 23.9304 83.9991 21.91 83.9991 17.0788 83.9991 17.3723 88.0779 18.3355 90.6483 15.3287 89.3065 13.5807 86.9112 14.0611 84.3857 12.359 84.1538 10.7384 83.3528 9.24295 81.6793 10.4197 80.2054 11.8546 79.0903 14.0611 79.0506 13.0975 75.1322 15.7405 73.4751 18.3355 72.5561 17.5146 75.432 16.976 78.7417 21.91 78.7417 25.5086 78.7417 28.3407 79.3601 29.9926 81.6799 30.0897 78.5868 30.381 66.3706 30.381 66.3706 30.589 61.7799 24.1903 61.9109 20.1233 63.2777 21.6582 57.9902 24.806 55.1312 32.0913 55.8552 30.3228 55.121 28.4383 53.4696 28.4383 50.2882 28.4395 45.9837 31.9581 41.2149 34.2682 39.805L35.4231 84.6193Z" fill="#FEC50C" fill-rule="evenodd" transform="matrix(1 0 0 -1 34 580)"></path><path d="M69.4225 461.609C69.4225 473.1 59.0277 479.006 50.8594 479.006 39.8546 479.006 33.9951 472.476 33.9951 463.928 33.9951 459.082 34.8896 456.042 37.1408 451.404 37.1408 451.404 55.2938 413.937 62.3612 399.446 63.2426 397.638 63.5271 395.58 63.5271 392.565 63.5271 387.906 58.9745 384.099 54.201 383.982 49.8495 383.874 45.1085 388.008 45.1085 392.719 45.1085 398.441 48.0994 400.992 51.1702 400.992 54.9492 400.992 56.455 399.45 56.455 396.817 56.455 394.982 55.5622 394.188 54.2787 394.188 51.0377 394.188 51.9476 398.518 51.9476 398.518 50.3379 398.168 49.015 396.536 49.7713 394.497 48.549 394.229 47.4457 393.579 46.6239 392.642 47.4927 391.805 48.4895 391.16 49.7713 390.941 49.0122 388.453 50.0266 387.238 52.2194 386.727 51.7769 387.684 51.7619 388.564 51.9088 389.394 55.3605 388.42 60.6517 389.97 60.6517 395.889 60.6517 401.765 56.5424 406.713 48.8386 405.476 50.6709 406.346 51.6032 408.125 51.7917 410.115 50.3922 409.574 48.8386 409.497 48.8386 409.497 49.7393 411.073 50.9903 412.432 50.9365 415.527 49.5086 414.883 48.1817 413.69 46.3514 414.445 49.2247 420.056 45.6946 427.774 36.7147 429.6 40.0014 425.776 41.6104 421.648 41.6104 417.538 41.6104 404.218 37.8805 401.979 37.8805 392.719 37.8805 388.844 39.8871 384.66 43.8644 381.817L43.8644 381.971C41.2358 381.272 39.5518 379.988 38.5836 378.242 44.5899 376.552 53.3207 376.583 58.0081 378.414 63.3968 379.033 67.1588 383.136 68.267 385.219 69.375 387.299 71.528 394.829 68.267 401.609 64.6969 409.029 47.868 444.444 42.621 455.577 41.5082 457.938 40.833 460.443 40.833 463.154 40.833 469.974 47.1278 472.355 50.7035 472.355 54.9779 472.355 59.3298 469.124 59.3298 465.087 59.3298 462.53 57.9304 460.99 55.91 460.99 51.0788 460.99 51.3723 465.069 52.3355 467.639 49.3287 466.297 47.5807 463.902 48.0611 461.376 46.359 461.144 44.7384 460.343 43.243 458.67 44.4197 457.196 45.8546 456.081 48.0611 456.041 47.0975 452.123 49.7405 450.466 52.3355 449.547 51.5146 452.423 50.976 455.732 55.91 455.732 59.5086 455.732 62.3407 456.351 63.9926 458.67 64.0897 455.577 64.381 443.361 64.381 443.361 64.589 438.77 58.1903 438.901 54.1233 440.268 55.6582 434.981 58.806 432.122 66.0913 432.846 64.3228 432.112 62.4383 430.46 62.4383 427.279 62.4395 422.974 65.9581 418.206 68.2682 416.796L69.4231 461.61Z" fill="#FEC50C" fill-rule="evenodd"></path><path d="M68.062 619.775C68.062 619.775 73.4649 624.366 75.3001 622.063 78.2517 618.359 66.2258 599.911 66.2258 593.415 66.2258 582.751 73.2631 579.851 81.9528 578.328 87.7838 577.306 97.2786 578.756 97.2786 578.756 95.4907 581.185 94.328 581.9 91.3157 582.094 94.6693 583.855 98.0843 587.677 98.0843 593.625 98.0843 602.799 94.3493 606.58 94.3493 616.922 94.3493 622.66 99.0024 629.963 99.0024 629.963 90.7776 629.131 86.7015 621.431 89.0206 615.278 87.7117 615.087 86.5232 615.386 85.5022 616.363 84.9006 614.658 85.8508 612.678 87.1231 610.972 86.0982 610.418 85.3453 610.75 83.7126 611.091 83.8678 609.334 84.9091 607.467 87.457 605.709 80.0632 607.651 75.5137 602.44 75.5137 596.985 75.5137 592.865 78.3693 589.912 81.1607 589.912 82.0625 589.912 83.3877 590.287 84.1348 590.852 84.6622 589.718 84.3907 588.2 83.8481 587.066 85.8935 587.613 87.1923 588.841 86.268 591.398 87.8394 591.544 89.0892 592.081 89.9393 593.104 89.078 594.219 87.7708 594.862 86.268 594.81 87.4121 597.197 86.1369 598.533 84.2788 599.616 84.2788 599.616 85.4606 594.81 82.4431 594.81 81.0865 594.81 79.8502 595.256 79.8502 597.278 79.8502 599.039 81.3721 601.478 84.8911 601.322 88.4095 601.167 91.2623 598.869 91.2623 593.19 91.2623 587.951 87.0826 585.345 81.5751 585.177 76.609 585.022 72.8606 587.742 72.8606 592.922 72.8606 599.817 82.704 615.532 82.704 621.675 82.704 626.285 78.6043 628.858 74.5928 628.858 69.3911 628.858 65.0023 623.65 65.0023 623.65L68.0581 619.776Z" fill="#FEC50C" fill-rule="evenodd"></path><path d="M66.5745 495.381C66.5745 483.89 76.9693 477.984 85.1375 477.984 96.1424 477.984 102.002 484.514 102.002 493.063 102.002 497.908 101.107 500.949 98.8562 505.587 98.8562 505.587 80.7033 543.054 73.6357 557.545 72.7543 559.352 72.4699 561.41 72.4699 564.426 72.4699 569.084 77.0224 572.892 81.796 573.008 86.1474 573.116 90.8884 568.982 90.8884 564.271 90.8884 558.549 87.8976 555.998 84.8268 555.998 81.0477 555.998 79.542 557.541 79.542 560.174 79.542 562.009 80.4348 562.802 81.7182 562.802 84.9593 562.802 84.0493 558.472 84.0493 558.472 85.659 558.822 86.9819 560.455 86.2257 562.493 87.448 562.761 88.5513 563.412 89.373 564.349 88.5042 565.185 87.5074 565.83 86.2257 566.05 86.9848 568.537 85.9703 569.752 83.7775 570.263 84.2202 569.307 84.235 568.427 84.0883 567.596 80.6364 568.571 75.3454 567.02 75.3454 561.102 75.3454 555.226 79.4546 550.278 87.1585 551.514 85.326 550.645 84.3939 548.865 84.2054 546.875 85.6048 547.416 87.1585 547.493 87.1585 547.493 86.2576 545.917 85.0068 544.558 85.0604 541.463 86.4884 542.108 87.8154 543.301 89.6455 542.546 86.7724 536.935 90.3024 529.217 99.2823 527.391 95.9956 531.215 94.3865 535.343 94.3865 539.453 94.3865 552.773 98.1165 555.012 98.1165 564.272 98.1165 568.147 96.1098 572.33 92.1325 575.174L92.1325 575.019C94.7612 575.718 96.4451 577.003 97.4133 578.748 91.4071 580.439 82.6762 580.408 77.9889 578.577 72.6001 577.957 68.8382 573.855 67.7301 571.772 66.6219 569.691 64.469 562.161 67.7301 555.382 71.3001 547.962 88.1289 512.547 93.3761 501.414 94.4888 499.052 95.1639 496.548 95.1639 493.836 95.1639 487.017 88.8693 484.636 85.2934 484.636 81.0191 484.636 76.6671 487.867 76.6671 491.903 76.6671 494.461 78.0666 496.001 80.0869 496.001 84.9182 496.001 84.6246 491.922 83.6616 489.352 86.6684 490.694 88.4162 493.089 87.9359 495.614 89.6381 495.846 91.2586 496.647 92.754 498.321 91.5773 499.795 90.1425 500.91 87.9359 500.949 88.8995 504.868 86.2566 506.525 83.6616 507.444 84.4824 504.568 85.0211 501.258 80.0869 501.258 76.4883 501.258 73.6563 500.64 72.0044 498.32 71.9072 501.413 71.6159 513.629 71.6159 513.629 71.4081 518.22 77.8067 518.089 81.8736 516.722 80.3389 522.01 77.1909 524.869 69.9058 524.145 71.6742 524.879 73.5586 526.53 73.5586 529.712 73.5574 534.016 70.0388 538.785 67.7289 540.195L66.5739 495.381Z" fill="#FEC50C" fill-rule="evenodd"></path><path d="M35.4255 84.6093C35.4255 96.1004 25.0307 102.006 16.8625 102.006 5.85764 102.006-0.00179828 95.4763-0.00179828 86.9279-0.00179828 82.0821 0.892688 79.0417 3.14382 74.4039 3.14382 74.4039 21.2967 36.9367 28.3643 22.4455 29.2457 20.6383 29.5301 18.5804 29.5301 15.5646 29.5301 10.9063 24.9776 7.09893 20.204 6.98219 15.8526 6.87448 11.1116 11.0083 11.1116 15.7193 11.1116 21.441 14.1024 23.9921 17.1732 23.9921 20.9523 23.9921 22.458 22.4502 22.458 19.8168 22.458 17.9818 21.5652 17.1881 20.2818 17.1881 17.0407 17.1881 17.9507 21.5181 17.9507 21.5181 16.341 21.1683 15.0181 19.5357 15.7743 17.4971 14.552 17.2291 13.4487 16.5787 12.627 15.6416 13.4958 14.8054 14.4926 14.1603 15.7743 13.9409 15.0152 11.4534 16.0297 10.2385 18.2225 9.72711 17.7798 10.6835 17.765 11.5639 17.9117 12.3944 21.3636 11.4199 26.6546 12.9704 26.6546 18.8889 26.6546 24.7647 22.5454 29.7128 14.8415 28.4763 16.674 29.3459 17.6061 31.1254 17.7946 33.1153 16.3952 32.5744 14.8415 32.4974 14.8415 32.4974 15.7424 34.0733 16.9932 35.4322 16.9396 38.5274 15.5115 37.8829 14.1846 36.6896 12.3545 37.4446 15.2276 43.0559 11.6976 50.7738 2.71773 52.5998 6.00435 48.7759 7.6135 44.6477 7.6135 40.5377 7.6135 27.2178 3.88355 24.979 3.88355 15.7187 3.88355 11.8439 5.89022 7.66018 9.86749 4.81657L9.86749 4.97132C7.23882 4.27234 5.55489 2.98775 4.58667 1.24228 10.5929-0.448178 19.3238-0.416998 24.0111 1.41351 29.3999 2.03313 33.1618 6.13581 34.2699 8.21859 35.3781 10.2992 37.531 17.8293 34.2699 24.6088 30.6999 32.0285 13.8711 67.444 8.62392 78.5769 7.51121 80.938 6.83611 83.4427 6.83611 86.1541 6.83611 92.974 13.1307 95.3549 16.7066 95.3549 20.9809 95.3549 25.3329 92.1236 25.3329 88.0873 25.3329 85.53 23.9334 83.9896 21.9131 83.9896 17.0818 83.9896 17.3754 88.0686 18.3384 90.6389 15.3316 89.297 13.5838 86.9019 14.0641 84.3763 12.3619 84.1445 10.7414 83.3435 9.24602 81.6699 10.4227 80.1959 11.8575 79.0809 14.0641 79.0412 13.1005 75.1228 15.7434 73.4657 18.3384 72.5468 17.5176 75.4226 16.9789 78.7322 21.9131 78.7322 25.5117 78.7322 28.3437 79.3507 29.9956 81.6704 30.0928 78.5775 30.3841 66.3613 30.3841 66.3613 30.5919 61.7704 24.1933 61.9015 20.1264 63.2683 21.6611 57.9807 24.8091 55.1219 32.0942 55.8458 30.3258 55.1116 28.4414 53.4603 28.4414 50.2788 28.4426 45.9743 31.9612 41.2055 34.2711 39.7957L35.4261 84.6099Z" fill="#FEC50C" fill-rule="evenodd" transform="matrix(-1 1.22465e-16 1.22465e-16 1 102 377)"></path></g></svg>