 
<svg style="fill-rule:evenodd;clip-rule:evenodd;stroke-linecap:round;stroke-linejoin:round" xmlns:xlink="http://www.w3.org/1999/xlink" xmlns="http://www.w3.org/2000/svg" xml:space="preserve" version="1.1" viewBox="0 0 900 600">

<defs></defs>
<g id="Untitled">
<path d="M0+0L900+0L900+0L900+600L900+600L0+600L0+600L0+0L0+0Z" opacity="1" fill="#de2910"></path>
</g>
<g id="petal">
<path d="M449.964+299.913C344.701+255.427+391.362+118.332+492.034+125.223C471.668+135.69+468.716+155.22+480.347+173.313C493.371+193.569+479.148+226.161+461.541+234.08C432.606+247.105+426.813+281.83+449.964+299.913Z" opacity="1" fill="#ffffff"></path>
<path d="M444.272+200.92L438.352+210.214L436.208+199.399L425.529+196.64L435.154+191.251L434.483+180.251L442.568+187.74L452.824+183.698L448.214+193.707L455.215+202.213L444.272+200.92Z" opacity="1" fill="#de2910"></path>
<path d="M450.56+298.759C437.829+292.225+427.564+278.604+423.092+262.328C417.977+243.658+420.919+223.585+431.175+207.29L428.967+205.896C418.326+222.825+415.274+243.639+420.581+263.015C425.309+280.237+435.795+294.113+449.368+301.08L450.56+298.759Z" opacity="1" fill="#de2910"></path>
</g>
<g id="Untitled_2">
<g opacity="1">
<path d="M450.071+299.939C459.852+186.081+604.657+188.094+629.212+285.967C612.964+269.832+593.477+273.06+579.864+289.713C564.625+308.359+529.232+304.904+516.26+290.606C494.931+267.112+460.115+272.333+450.071+299.939Z" opacity="1" fill="#ffffff"></path>
<path d="M542.461+263.935L531.793+261.177L541.415+255.795L540.739+244.787L548.839+252.275L559.093+248.238L554.469+258.242L561.483+266.747L550.539+265.455L544.613+274.742L542.461+263.935Z" opacity="1" fill="#de2910"></path>
<path d="M451.353+300.149C453.634+286.022+463.415+272.05+477.513+262.767C493.689+252.133+513.688+248.729+532.355+253.447L532.998+250.917C513.61+246.028+492.871+249.557+476.084+260.592C461.166+270.41+451.209+284.671+448.778+299.733L451.353+300.149Z" opacity="1" fill="#de2910"></path>
</g>
<g opacity="1">
<path d="M450.08+300.049C561.388+274.167+604.221+412.507+518.726+466.105C529.05+445.666+519.958+428.13+499.914+420.329C477.471+411.598+469.82+376.869+479.41+360.114C495.163+332.569+479.439+301.071+450.08+300.049Z" opacity="1" fill="#ffffff"></path>
<path d="M512.872+376.791L512.198+365.792L520.29+373.281L530.551+369.237L525.932+379.254L532.94+387.758L521.997+386.452L516.076+395.751L513.923+384.943L503.259+382.177L512.872+376.791Z" opacity="1" fill="#de2910"></path>
<path d="M450.276+301.333C464.417+299.136+480.728+304.122+493.913+314.661C509.024+326.759+518.443+344.727+519.724+363.939L522.329+363.769C520.987+343.819+511.222+325.185+495.54+312.629C481.592+301.475+464.952+296.413+449.877+298.755L450.276+301.333Z" opacity="1" fill="#de2910"></path>
</g>
<g opacity="1">
<path d="M449.978+300.091C508.989+397.953+390.657+481.439+313.263+416.691C335.891+420.194+349.759+406.128+350.984+384.655C352.353+360.612+383.018+342.604+401.917+346.547C432.981+353.017+458.079+328.329+449.978+300.091Z" opacity="1" fill="#ffffff"></path>
<path d="M396.396+383.525L406.648+379.485L402.027+389.495L409.044+398.003L398.089+396.706L392.167+406L390.028+395.188L379.354+392.43L388.968+387.043L388.303+376.046L396.396+383.525Z" opacity="1" fill="#de2910"></path>
<path d="M448.818+300.675C455.276+313.444+455.575+330.497+449.626+346.294C442.79+364.404+428.612+378.914+410.736+386.069L411.703+388.494C430.262+381.053+444.966+366.008+452.061+347.213C458.359+330.502+458.032+313.112+451.146+299.498L448.818+300.675Z" opacity="1" fill="#de2910"></path>
</g>
<g opacity="1">
<path d="M449.907+300.007C375.069+386.372+259.103+299.629+296.766+206.014C300.427+228.618+318.09+237.461+338.891+231.99C362.18+225.863+388.782+249.462+390.873+268.654C394.319+300.197+425.554+316.437+449.907+300.007Z" opacity="1" fill="#ffffff"></path>
<path d="M353.999+274.83L361.009+283.332L350.061+282.03L344.137+291.333L341.985+280.514L331.317+277.753L340.938+272.378L340.263+261.375L348.357+268.853L358.61+264.822L353.999+274.83Z" opacity="1" fill="#de2910"></path>
<path d="M448.993+299.084C438.844+309.173+422.718+314.726+405.856+313.95C386.52+313.045+368.339+304.044+356.01+289.255L354.002+290.924C366.815+306.275+385.667+315.61+405.734+316.55C423.574+317.376+440.012+311.691+450.831+300.935L448.993+299.084Z" opacity="1" fill="#de2910"></path>
</g>
</g>
</svg>
