<svg width="1136" height="758" xmlns="http://www.w3.org/2000/svg" xmlns:xlink="http://www.w3.org/1999/xlink" overflow="hidden"><defs><clipPath id="clip0"><rect x="-1" y="-1" width="1136" height="758"></rect></clipPath></defs><g clip-path="url(#clip0)" transform="translate(1 1)"><rect x="0" y="0" width="1134" height="756" fill="#DE2910"></rect><path d="M80.0002 154.685 163.269 154.685 189 76 214.731 154.685 298 154.685 230.634 203.314 256.366 282 189 233.369 121.634 282 147.366 203.314Z" fill="#FFDE00" fill-rule="evenodd"></path><path d="M345.13 95.3298 363.684 74.7333 349.936 50.8207 375.15 62.0043 393.703 41.4076 390.733 68.9158 415.947 80.0991 388.897 85.9166 385.927 113.425 372.18 89.512Z" fill="#FFDE00" fill-rule="evenodd"></path><path d="M416.889 156.048 441.976 144.254 438.572 116.882 457.48 136.964 482.566 125.169 469.165 149.376 488.073 169.458 460.883 164.336 447.482 188.542 444.079 161.17Z" fill="#FFDE00" fill-rule="evenodd"></path><path d="M7.93681e-05 26.2187 27.721 26.2188 36.2871 0 44.8531 26.2188 72.5741 26.2187 50.1473 42.4226 58.7137 68.6413 36.2871 52.4371 13.8604 68.6413 22.4269 42.4226Z" fill="#FFDE00" fill-rule="evenodd" transform="matrix(0.524527 0.851394 0.851394 -0.524527 326.428 329.97)"></path><path d="M7.93681e-05 26.2187 27.721 26.2188 36.2871 0 44.8531 26.2188 72.5741 26.2187 50.1473 42.4226 58.7137 68.6413 36.2871 52.4371 13.8604 68.6413 22.4269 42.4226Z" fill="#FFDE00" fill-rule="evenodd" transform="matrix(-0.33475 -0.942307 -0.942307 0.33475 502.065 286.296)"></path></g></svg>